REM MD5 dcde1385d109ab2d704838e8edf237dc
FILE "Toys R Us Demo Disc (USA).bin" BINARY
  TRACK 01 MODE2/2352
    INDEX 01 00:00:00
  TRACK 02 AUDIO
    INDEX 00 63:14:14
    INDEX 01 63:16:14
  TRACK 03 AUDIO
    INDEX 00 65:55:08
    INDEX 01 65:57:08
  TRACK 04 AUDIO
    INDEX 00 67:50:35
    INDEX 01 67:52:35
  TRACK 05 AUDIO
    INDEX 00 68:56:28
    INDEX 01 68:58:28
  TRACK 06 AUDIO
    INDEX 00 69:03:69
    INDEX 01 69:05:69
REM LEADOUT 69:11:65
